<svg width="256" height="256" viewBox="0 0 256 256" fill="none" xmlns="http://www.w3.org/2000/svg">
<g filter="url(#filter0_d_2_3)">
<path d="M71.536 107.64C71.536 109.848 71.344 111.768 70.96 113.4H66.64C67.024 114.936 67.216 116.856 67.216 119.16C67.216 121.368 67.024 123.288 66.64 124.92H58C58.384 126.456 58.576 128.376 58.576 130.68C58.576 132.888 58.384 134.808 58 136.44H49.36C49.744 137.976 49.936 139.896 49.936 142.2C49.936 144.408 49.744 146.328 49.36 147.96H42.16C42.544 149.496 42.736 151.416 42.736 153.72C42.736 155.928 42.544 157.848 42.16 159.48H70.96C71.344 161.016 71.536 162.936 71.536 165.24C71.536 167.448 71.344 169.368 70.96 171H30.64C30.256 169.368 30.064 167.448 30.064 165.24C30.064 162.936 30.256 161.016 30.64 159.48C30.256 157.848 30.064 155.928 30.064 153.72C30.064 151.416 30.256 149.496 30.64 147.96H37.84C37.456 146.328 37.264 144.408 37.264 142.2C37.264 139.896 37.456 137.976 37.84 136.44H46.48C46.096 134.808 45.904 132.888 45.904 130.68C45.904 128.376 46.096 126.456 46.48 124.92H55.12C54.736 123.288 54.544 121.368 54.544 119.16C54.544 116.856 54.736 114.936 55.12 113.4H59.44C59.056 111.768 58.864 109.848 58.864 107.64C58.864 105.336 59.056 103.416 59.44 101.88H30.64C30.256 100.248 30.064 98.328 30.064 96.12C30.064 93.816 30.256 91.896 30.64 90.36H70.96C71.344 91.896 71.536 93.816 71.536 96.12C71.536 98.328 71.344 100.248 70.96 101.88C71.344 103.416 71.536 105.336 71.536 107.64ZM150.792 96.12C150.792 98.328 150.6 100.248 150.216 101.88H132.936C133.32 103.416 133.512 105.336 133.512 107.64C133.512 109.848 133.32 111.768 132.936 113.4C133.32 114.936 133.512 116.856 133.512 119.16C133.512 121.368 133.32 123.288 132.936 124.92C133.32 126.456 133.512 128.376 133.512 130.68C133.512 132.888 133.32 134.808 132.936 136.44C133.32 137.976 133.512 139.896 133.512 142.2C133.512 144.408 133.32 146.328 132.936 147.96C133.32 149.496 133.512 151.416 133.512 153.72C133.512 155.928 133.32 157.848 132.936 159.48C133.32 161.016 133.512 162.936 133.512 165.24C133.512 167.448 133.32 169.368 132.936 171H121.416C121.032 169.368 120.84 167.448 120.84 165.24C120.84 162.936 121.032 161.016 121.416 159.48C121.032 157.848 120.84 155.928 120.84 153.72C120.84 151.416 121.032 149.496 121.416 147.96C121.032 146.328 120.84 144.408 120.84 142.2C120.84 139.896 121.032 137.976 121.416 136.44C121.032 134.808 120.84 132.888 120.84 130.68C120.84 128.376 121.032 126.456 121.416 124.92C121.032 123.288 120.84 121.368 120.84 119.16C120.84 116.856 121.032 114.936 121.416 113.4C121.032 111.768 120.84 109.848 120.84 107.64C120.84 105.336 121.032 103.416 121.416 101.88H104.136C103.752 100.248 103.56 98.328 103.56 96.12C103.56 93.816 103.752 91.896 104.136 90.36H150.216C150.6 91.896 150.792 93.816 150.792 96.12ZM227.169 119.16C227.169 121.368 226.977 123.288 226.593 124.92H220.833C221.217 126.456 221.409 128.376 221.409 130.68C221.409 132.888 221.217 134.808 220.833 136.44H226.593C226.977 137.976 227.169 139.896 227.169 142.2C227.169 144.408 226.977 146.328 226.593 147.96C226.977 149.496 227.169 151.416 227.169 153.72C227.169 155.928 226.977 157.848 226.593 159.48H220.833C221.217 161.016 221.409 162.936 221.409 165.24C221.409 167.448 221.217 169.368 220.833 171H180.513C180.129 169.368 179.937 167.448 179.937 165.24C179.937 162.936 180.129 161.016 180.513 159.48C180.129 157.848 179.937 155.928 179.937 153.72C179.937 151.416 180.129 149.496 180.513 147.96C180.129 146.328 179.937 144.408 179.937 142.2C179.937 139.896 180.129 137.976 180.513 136.44C180.129 134.808 179.937 132.888 179.937 130.68C179.937 128.376 180.129 126.456 180.513 124.92C180.129 123.288 179.937 121.368 179.937 119.16C179.937 116.856 180.129 114.936 180.513 113.4C180.129 111.768 179.937 109.848 179.937 107.64C179.937 105.336 180.129 103.416 180.513 101.88C180.129 100.248 179.937 98.328 179.937 96.12C179.937 93.816 180.129 91.896 180.513 90.36H220.833C221.217 91.896 221.409 93.816 221.409 96.12C221.409 98.328 221.217 100.248 220.833 101.88H226.593C226.977 103.416 227.169 105.336 227.169 107.64C227.169 109.848 226.977 111.768 226.593 113.4C226.977 114.936 227.169 116.856 227.169 119.16ZM215.073 124.92C214.689 123.288 214.497 121.368 214.497 119.16C214.497 116.856 214.689 114.936 215.073 113.4C214.689 111.768 214.497 109.848 214.497 107.64C214.497 105.336 214.689 103.416 215.073 101.88H192.033C192.417 103.416 192.609 105.336 192.609 107.64C192.609 109.848 192.417 111.768 192.033 113.4C192.417 114.936 192.609 116.856 192.609 119.16C192.609 121.368 192.417 123.288 192.033 124.92H215.073ZM215.073 147.96C214.689 146.328 214.497 144.408 214.497 142.2C214.497 139.896 214.689 137.976 215.073 136.44H192.033C192.417 137.976 192.609 139.896 192.609 142.2C192.609 144.408 192.417 146.328 192.033 147.96C192.417 149.496 192.609 151.416 192.609 153.72C192.609 155.928 192.417 157.848 192.033 159.48H215.073C214.689 157.848 214.497 155.928 214.497 153.72C214.497 151.416 214.689 149.496 215.073 147.96Z" fill="white"/>
</g>
<defs>
<filter id="filter0_d_2_3" x="26.064" y="90.36" width="205.105" height="88.64" filterUnits="userSpaceOnUse" color-interpolation-filters="sRGB">
<feFlood flood-opacity="0" result="BackgroundImageFix"/>
<feColorMatrix in="SourceAlpha" type="matrix" values="0 0 0 0 0 0 0 0 0 0 0 0 0 0 0 0 0 0 127 0" result="hardAlpha"/>
<feOffset dy="4"/>
<feGaussianBlur stdDeviation="2"/>
<feComposite in2="hardAlpha" operator="out"/>
<feColorMatrix type="matrix" values="0 0 0 0 0 0 0 0 0 0 0 0 0 0 0 0 0 0 0.25 0"/>
<feBlend mode="normal" in2="BackgroundImageFix" result="effect1_dropShadow_2_3"/>
<feBlend mode="normal" in="SourceGraphic" in2="effect1_dropShadow_2_3" result="shape"/>
</filter>
</defs>
</svg>
